<?xml version="1.0" standalone="no"?>
<!DOCTYPE svg PUBLIC "-//W3C//DTD SVG 20010904//EN"
 "http://www.w3.org/TR/2001/REC-SVG-20010904/DTD/svg10.dtd">
<svg version="1.0" xmlns="http://www.w3.org/2000/svg"
 width="512.000000pt" height="512.000000pt" viewBox="0 0 512.000000 512.000000"
 preserveAspectRatio="xMidYMid meet">
<metadata>
Created by potrace 1.11, written by Peter Selinger 2001-2013
</metadata>
<g transform="translate(0.000000,512.000000) scale(0.100000,-0.100000)"
fill="#000000" stroke="none">
<path d="M2770 4800 l0 -110 -105 0 -105 0 0 -690 0 -690 -105 0 -105 0 0
-110 0 -110 -160 0 -160 0 0 -105 0 -105 -160 0 -160 0 0 -105 0 -105 -110 0
-110 0 0 -110 0 -110 -210 0 -210 0 0 110 0 110 -110 0 -110 0 0 105 0 105
-105 0 -105 0 0 215 0 215 -110 0 -110 0 0 -640 0 -640 110 0 110 0 0 -110 0
-110 105 0 105 0 0 -105 0 -105 110 0 110 0 0 -105 0 -105 105 0 105 0 0 -110
0 -110 105 0 105 0 0 -425 0 -425 215 0 215 0 0 105 0 105 -105 0 -105 0 0
110 0 110 105 0 105 0 0 105 0 105 105 0 105 0 0 105 0 105 110 0 110 0 0
-105 0 -105 105 0 105 0 0 -320 0 -320 215 0 215 0 0 105 0 105 -110 0 -110 0
0 430 0 430 110 0 110 0 0 105 0 105 105 0 105 0 0 160 0 160 105 0 105 0 0
375 0 375 110 0 110 0 0 -110 0 -110 105 0 105 0 0 215 0 215 -215 0 -215 0 0
215 0 215 430 0 430 0 0 105 0 105 -320 0 -320 0 0 105 0 105 535 0 535 0 0
480 0 480 -110 0 -110 0 0 110 0 110 -855 0 -855 0 0 -110z m430 -320 l0 -110
-105 0 -105 0 0 110 0 110 105 0 105 0 0 -110z"/>
</g>
</svg>
